<svg width="14" height="16" viewBox="0 0 14 16" fill="none" xmlns="http://www.w3.org/2000/svg">
<path fill-rule="evenodd" clip-rule="evenodd" d="M10.2949 1.41253C10.2516 1.03953 9.93455 0.75 9.54993 0.75C9.13571 0.75 8.79993 1.08579 8.79993 1.5V2.25H5.04993V1.5L5.04488 1.41253C5.00156 1.03953 4.68455 0.75 4.29993 0.75C3.88571 0.75 3.54993 1.08579 3.54993 1.5V2.25H3.25C1.59315 2.25 0.25 3.59315 0.25 5.25V12.75C0.25 14.4069 1.59315 15.75 3.25 15.75H10.75C12.4069 15.75 13.75 14.4069 13.75 12.75V5.25C13.75 3.59315 12.4069 2.25 10.75 2.25H10.2999V1.5L10.2949 1.41253ZM3.55497 3.83747L3.54993 3.75H3.25C2.42157 3.75 1.75 4.42157 1.75 5.25V5.625H12.25V5.25C12.25 4.42157 11.5784 3.75 10.75 3.75H10.2999C10.2999 4.16421 9.96414 4.5 9.54993 4.5C9.1653 4.5 8.8483 4.21047 8.80497 3.83747L8.79993 3.75H5.04993C5.04993 4.16421 4.71414 4.5 4.29993 4.5C3.9153 4.5 3.5983 4.21047 3.55497 3.83747ZM12.25 7.125H1.75V12.75C1.75 13.5784 2.42157 14.25 3.25 14.25H10.75C11.5784 14.25 12.25 13.5784 12.25 12.75V7.125Z" fill="black" fill-opacity="0.75"/>
</svg>
