<svg width="24" height="24" viewBox="0 0 24 24" fill="#000" xmlns="http://www.w3.org/2000/svg">
<g clip-path="url(#clip0_251_1078)">
<path d="M10.9109 11.9602L1.10358 7.07693C0.87973 6.96556 0.738281 6.7369 0.738281 6.48697C0.738281 6.23675 0.87973 6.0081 1.10358 5.89672L10.9109 1.0133C11.5856 0.677532 12.3909 0.677532 13.0656 1.0133L22.873 5.89672C23.0968 6.0081 23.2383 6.23675 23.2383 6.48697C23.2383 6.7369 23.0968 6.96556 22.873 7.07693L13.0656 11.9602C12.7283 12.128 12.3584 12.2122 11.9883 12.2122C11.6182 12.2122 11.2482 12.128 10.9109 11.9602Z" />
<path d="M22.873 11.4201L19.9906 9.98505L13.6533 13.1405C13.1406 13.3958 12.5649 13.5307 11.9883 13.5307C11.4116 13.5307 10.836 13.3958 10.3233 13.1405L3.98598 9.98505L1.10358 11.4201C0.87973 11.5316 0.738281 11.7602 0.738281 12.0102C0.738281 12.2605 0.87973 12.4888 1.10358 12.6003L10.9109 17.4835C11.2482 17.6516 11.6182 17.7355 11.9883 17.7355C12.3582 17.7355 12.7283 17.6516 13.0656 17.4838L22.873 12.6003C23.0968 12.4888 23.2383 12.2605 23.2383 12.0102C23.2383 11.7602 23.0968 11.5316 22.873 11.4201Z" />
<path d="M22.873 16.9447L19.9906 15.5095L13.6533 18.6651C13.1406 18.9203 12.5649 19.0551 11.9883 19.0551C11.4116 19.0551 10.836 18.9203 10.3233 18.6651L3.98598 15.5095L1.10358 16.9447C0.87973 17.0561 0.738281 17.2848 0.738281 17.5347C0.738281 17.7848 0.87973 18.0133 1.10358 18.1249L10.9109 23.0081C11.2482 23.176 11.6182 23.2601 11.9883 23.2601C12.3582 23.2599 12.7283 23.176 13.0656 23.0081L22.873 18.1249C23.0968 18.0133 23.2383 17.7848 23.2383 17.5347C23.2383 17.2846 23.0968 17.0561 22.873 16.9447Z" />
</g>
<defs>
<clipPath id="clip0_251_1078">
<rect width="24" height="24" fill="white"/>
</clipPath>
</defs>
</svg>
