<svg width="22" height="20" viewBox="0 0 22 20" fill="none" xmlns="http://www.w3.org/2000/svg">
<path fill-rule="evenodd" clip-rule="evenodd" d="M1.57926 11.6523H5.01677C5.20441 11.6514 5.38407 11.5763 5.51645 11.4433C5.64883 11.3103 5.72315 11.1303 5.72314 10.9427V1.51884C5.72315 1.3312 5.64883 1.15119 5.51645 1.0182C5.38407 0.88521 5.20441 0.810065 5.01677 0.809204H1.57926C1.39132 0.81006 1.21132 0.885101 1.07842 1.018C0.945525 1.1509 0.870485 1.3309 0.869629 1.51884V10.9589C0.870485 11.1469 0.945525 11.3269 1.07842 11.4598C1.21132 11.5927 1.39132 11.6677 1.57926 11.6686V11.6523ZM10.5962 18.7194C10.9673 20.6139 14.0662 18.8691 14.2713 15.819C14.3171 14.7347 14.2285 13.649 14.0077 12.5865H18.438C20.2772 12.5117 21.8853 11.1933 20.7492 9.02861C21.0096 8.08459 21.0487 6.97782 20.3455 6.53837C20.4334 5.05074 20.02 4.12626 19.2485 3.39709C19.2344 2.71805 19.0339 2.05594 18.6691 1.48303C18.0734 0.643188 17.5916 0.83199 16.6541 0.83199H9.16716C7.98226 0.83199 7.33773 1.15751 6.56299 2.13407V10.4609C8.81234 11.0729 9.99723 14.123 10.5962 16.125V18.7291V18.7194Z" fill="white"/>
</svg>
