<svg width="24" height="24" viewBox="0 0 24 24" fill="#000" xmlns="http://www.w3.org/2000/svg">
<path d="M9 3H4C3.44771 3 3 3.44771 3 4V9C3 9.5523 3.44771 10 4 10H9C9.5523 10 10 9.5523 10 9V4C10 3.44771 9.5523 3 9 3Z" />
<path fill-rule="evenodd" clip-rule="evenodd" d="M2.25 4C2.25 3.0335 3.0335 2.25 4 2.25H9C9.96652 2.25 10.75 3.03351 10.75 4V9C10.75 9.96651 9.96651 10.75 9 10.75H4C3.03351 10.75 2.25 9.96652 2.25 9V4ZM4 3.75C3.86193 3.75 3.75 3.86193 3.75 4V9C3.75 9.13808 3.86192 9.25 4 9.25H9C9.13809 9.25 9.25 9.13809 9.25 9V4C9.25 3.86192 9.13808 3.75 9 3.75H4Z" />
<path d="M9 14H4C3.44771 14 3 14.4477 3 15V20C3 20.5523 3.44771 21 4 21H9C9.5523 21 10 20.5523 10 20V15C10 14.4477 9.5523 14 9 14Z" />
<path fill-rule="evenodd" clip-rule="evenodd" d="M2.25 15C2.25 14.0335 3.03351 13.25 4 13.25H9C9.96651 13.25 10.75 14.0335 10.75 15V20C10.75 20.9665 9.96651 21.75 9 21.75H4C3.03351 21.75 2.25 20.9665 2.25 20V15ZM4 14.75C3.86192 14.75 3.75 14.8619 3.75 15V20C3.75 20.1381 3.86192 20.25 4 20.25H9C9.13809 20.25 9.25 20.1381 9.25 20V15C9.25 14.8619 9.13809 14.75 9 14.75H4Z" />
<path d="M20 3H15C14.4477 3 14 3.44771 14 4V9C14 9.5523 14.4477 10 15 10H20C20.5523 10 21 9.5523 21 9V4C21 3.44771 20.5523 3 20 3Z" />
<path fill-rule="evenodd" clip-rule="evenodd" d="M13.25 4C13.25 3.03351 14.0335 2.25 15 2.25H20C20.9665 2.25 21.75 3.03351 21.75 4V9C21.75 9.96651 20.9665 10.75 20 10.75H15C14.0335 10.75 13.25 9.96651 13.25 9V4ZM15 3.75C14.8619 3.75 14.75 3.86192 14.75 4V9C14.75 9.13809 14.8619 9.25 15 9.25H20C20.1381 9.25 20.25 9.13809 20.25 9V4C20.25 3.86192 20.1381 3.75 20 3.75H15Z" />
<path d="M20 14H15C14.4477 14 14 14.4477 14 15V20C14 20.5523 14.4477 21 15 21H20C20.5523 21 21 20.5523 21 20V15C21 14.4477 20.5523 14 20 14Z" />
<path fill-rule="evenodd" clip-rule="evenodd" d="M13.25 15C13.25 14.0335 14.0335 13.25 15 13.25H20C20.9665 13.25 21.75 14.0335 21.75 15V20C21.75 20.9665 20.9665 21.75 20 21.75H15C14.0335 21.75 13.25 20.9665 13.25 20V15ZM15 14.75C14.8619 14.75 14.75 14.8619 14.75 15V20C14.75 20.1381 14.8619 20.25 15 20.25H20C20.1381 20.25 20.25 20.1381 20.25 20V15C20.25 14.8619 20.1381 14.75 20 14.75H15Z" />
</svg>
