<svg width="22" height="20" viewBox="0 0 22 20" fill="none" xmlns="http://www.w3.org/2000/svg">
<path fill-rule="evenodd" clip-rule="evenodd" d="M1.57926 8.37951H5.01677C5.20441 8.38037 5.38407 8.45552 5.51645 8.58851C5.64883 8.7215 5.72315 8.9015 5.72314 9.08915V18.513C5.7223 18.7004 5.6477 18.8799 5.51551 19.0127C5.38331 19.1455 5.20414 19.2209 5.01677 19.2226H1.57926C1.39132 19.2218 1.21132 19.1467 1.07842 19.0138C0.945525 18.8809 0.870485 18.7009 0.869629 18.513V9.08915C0.870485 8.90121 0.945525 8.7212 1.07842 8.58831C1.21132 8.45541 1.39132 8.38037 1.57926 8.37951ZM10.5962 1.31246C10.9673 -0.582075 14.0662 1.16272 14.2713 4.21285C14.3171 5.29707 14.2285 6.3828 14.0077 7.44527H18.438C20.2772 7.52014 21.8853 8.8385 20.7492 11.0032C21.0096 11.9472 21.0487 13.054 20.3455 13.4934C20.4334 14.9811 20.02 15.9056 19.2485 16.6347C19.2339 17.3137 19.0335 17.9757 18.6691 18.5488C18.0734 19.3886 17.5916 19.1998 16.6541 19.1998H9.16716C7.98226 19.1998 7.33773 18.8743 6.56299 17.8977V9.55464C8.81234 8.95894 9.99723 5.90881 10.5962 3.90686V1.30269V1.31246Z" fill="white"/>
</svg>
